<svg width="2256" height="2316" xmlns="http://www.w3.org/2000/svg"><g fill="none" fill-rule="evenodd"><g transform="translate(2)"><circle stroke="#0F0F0F" stroke-width="4" cx="1126" cy="1188" r="1126"/><g fill-rule="nonzero"><path d="M1067 43.3c-3.4 0-6.1-2.7-6.1-6.1 0-3.4 2.7-6.1 6.1-6.1 3.4 0 6.1 2.7 6.1 6.1v6.1h-6.1zm-.4 4.9c3.6 0 6.5 2.7 6.5 6.1 0 3.4-2.9 6.1-6.5 6.1h-16.3c-3.6 0-6.5-2.7-6.5-6.1 0-3.4 2.9-6.1 6.5-6.1h16.3zm26.1 6.1c0-3.4 2.7-6.1 6.1-6.1 3.4 0 6.1 2.7 6.1 6.1 0 3.4-2.7 6.1-6.1 6.1h-6.1v-6.1zm-4.9-.4c0 3.6-2.7 6.5-6.1 6.5-3.4 0-6.1-2.9-6.1-6.5V37.6c0-3.6 2.7-6.5 6.1-6.5 3.4 0 6.1 2.9 6.1 6.5v16.3z" fill="#CCC"/><path d="M1149.4 60.2c0-33.1-26.9-60-60-60s-60 26.9-60 60 26.9 60 60 60 60-26.9 60-60z" fill="#222"/><path d="M1071 67.5c0 3.4-2.7 6.1-6.1 6.1-3.4 0-6.1-2.7-6.1-6.1 0-3.4 2.7-6.1 6.1-6.1h6.1v6.1zm4.9.4c0-3.6 2.7-6.5 6.1-6.5 3.4 0 6.1 2.9 6.1 6.5v16.3c0 3.6-2.7 6.5-6.1 6.5-3.4 0-6.1-2.9-6.1-6.5V67.9zm6.2-26.1c-3.4 0-6.1-2.7-6.1-6.1 0-3.4 2.7-6.1 6.1-6.1 3.4 0 6.1 2.7 6.1 6.1v6.1h-6.1zm-.5 4.9c3.6 0 6.5 2.7 6.5 6.1 0 3.4-2.9 6.1-6.5 6.1h-16.3c-3.6 0-6.5-2.7-6.5-6.1 0-3.4 2.9-6.1 6.5-6.1h16.3zm26.2 6.1c0-3.4 2.7-6.1 6.1-6.1 3.4 0 6.1 2.7 6.1 6.1 0 3.4-2.7 6.1-6.1 6.1h-6.1v-6.1zm-4.9-.4c0 3.6-2.7 6.5-6.1 6.5-3.4 0-6.1-2.9-6.1-6.5V36.1c0-3.6 2.7-6.5 6.1-6.5 3.4 0 6.1 2.9 6.1 6.5v16.3zm-6.2 26.1c3.4 0 6.1 2.7 6.1 6.1 0 3.4-2.7 6.1-6.1 6.1-3.4 0-6.1-2.7-6.1-6.1v-6.1h6.1zm.5-4.9c-3.6 0-6.5-2.7-6.5-6.1 0-3.4 2.9-6.1 6.5-6.1h16.3c3.6 0 6.5 2.7 6.5 6.1 0 3.4-2.9 6.1-6.5 6.1h-16.3z" fill="#CCC"/><path d="M1475.4 133.2c0-33.1 26.9-60 60-60s60 26.9 60 60-26.9 60-60 60-60-26.9-60-60z" fill="#222"/><path d="M1512.1 128.7c-1.9 0-3.4 1.5-3.4 3.4s1.5 3.4 3.4 3.4 3.4-1.5 3.4-3.4-1.5-3.4-3.4-3.4zm11.7 11.4c-2.1 0-3.8 1.7-3.8 3.8 0 2.1 1.7 3.8 3.8 3.8 2.1 0 3.8-1.7 3.8-3.8-.1-2.1-1.7-3.8-3.8-3.8zm0-12c-2.2 0-3.9 1.8-3.9 3.9 0 2.2 1.8 4 3.9 4 2.2 0 4-1.8 4-4-.1-2.1-1.9-3.9-4-3.9zm0-11.6c-2.1 0-3.8 1.7-3.8 3.8 0 2.1 1.7 3.8 3.8 3.8 2.1 0 3.8-1.7 3.8-3.8-.1-2.1-1.7-3.8-3.8-3.8zm34.9 10c-3.1 0-5.6 2.5-5.6 5.6 0 3.1 2.5 5.6 5.6 5.6 3.1 0 5.6-2.5 5.6-5.6 0-3.1-2.5-5.6-5.6-5.6zm-11.8 12.5c-2.7 0-4.9 2.2-4.9 4.9s2.2 4.9 4.9 4.9 4.9-2.2 4.9-4.9-2.2-4.9-4.9-4.9zm0-12c-2.8 0-5.1 2.3-5.1 5.1s2.3 5.1 5.1 5.1 5.1-2.3 5.1-5.1c-.1-2.8-2.3-5.1-5.1-5.1zm0-11.6c-2.7 0-4.9 2.2-4.9 4.9s2.2 4.9 4.9 4.9 4.9-2.2 4.9-4.9-2.2-4.9-4.9-4.9zm-11.5 36.1c-2.3 0-4.2 1.9-4.2 4.2 0 2.3 1.9 4.2 4.2 4.2 2.3 0 4.2-1.9 4.2-4.2 0-2.3-1.9-4.2-4.2-4.2zm0-12c-2.4 0-4.3 1.9-4.3 4.3s1.9 4.3 4.3 4.3 4.3-1.9 4.3-4.3-1.9-4.3-4.3-4.3zm0-11.9c-2.5 0-4.5 2-4.5 4.5s2 4.5 4.5 4.5 4.5-2 4.5-4.5-2-4.5-4.5-4.5zm0-11.7c-2.4 0-4.3 1.9-4.3 4.3s1.9 4.3 4.3 4.3 4.3-1.9 4.3-4.3c0-2.3-1.9-4.3-4.3-4.3zm4.2-7.4c0 2.3-1.9 4.2-4.2 4.2-2.3 0-4.2-1.9-4.2-4.2 0-2.3 1.9-4.2 4.2-4.2 2.3 0 4.2 1.9 4.2 4.2z" fill="#CCC"/><path d="M635.4 146.2c0-33.1 26.9-60 60-60s60 26.9 60 60-26.9 60-60 60-60-26.9-60-60z" fill="#222"/><g fill="#CCC"><path d="M698.7 179.1c-2-1.2-3-3-3.4-4-.4-1-.6-2.1-.6-3.2 0-4.8 4-8.8 8.8-8.8 1.5 0 2.6 1.2 2.6 2.6 0 1-.5 1.8-1.4 2.3-.3.2-.7.3-1 .3-.3 0-1.4.2-1.9.6-.6.5-1 1.2-1 2 0 .9.3 1.7.9 2.3 1.1 1.1 2.5 1.6 4 1.6 4 0 7.2-3.2 7.2-7.2 0-3.6-2.4-6.7-5.6-8.1-.5-.2-1.2-.4-1.9-.6-.9-.2-1.7-.3-1.7-.3-2.5-.3-8.6-2.2-9-7.6 0 0-1.8 8.2-5.4 10.4-.3.2-.8.3-1.3.5-.5.1-1.1.2-1.3.2-5.9.3-12.1-1.5-16.4-5.9 0 0-2.9-2.4-4.4-9.1-.1-.4-.2-.9-.3-1.5-.4-1.6-.8-3.8-1.2-5.8-.1-.7-.2-1.4-.3-1.9 0-.2 0-.4-.1-.5 0-2.8 1.7-4.8 3.9-5.1h11.9c2 0 3.2-.5 4-1.2 1-.9 1.2-2.3 1.2-3.9V115c.3-2.2 2.2-3.9 5.1-3.9h1.4c.6 0 1.3 0 1.9.2.5.1.9.2 1.5.3 3.5.9 4.3 4.5 4.3 4.5s6.7 1.2 10.1 1.7c.3 0 .6.1.9.1 3.6.6 10.4 1.6 11.8 9 3.5 19 1.4 37.4 1.2 37.4-2.5 17.9-17.4 17.1-17.4 17.1-3.1-.2-5.5-1.3-7.1-2.3zm9.3-36.2c-.1.3-.2.7-.2.8 0 .2.1.2.2.3h.1c.8.3 1.9.5 3.6.7 1.6.2 2.8.4 3.6.2h.1c.1 0 .2 0 .3-.2.1-.1 0-.5 0-.8-.2-1.6-1.6-2.8-3.5-3-2-.2-3.6.5-4.2 2z"/><path d="M682.9 126.7c0 .7-.1 1.9-.8 2.6-.8.7-1.9.8-2.6.8h-7.4c-2.2 0-3.4 0-4.3.1-.5.1-1.1.3-1.3.4-.1 0-.1 0-.1-.1l17-17.3c.1-.1.1 0 .1.1v.1c-.1.3-.3.8-.4 1.2-.1.9-.1 2.2-.1 4.3l-.1 7.8z"/></g><path d="M374.4 309.2c0-33.1 26.9-60 60-60s60 26.9 60 60-26.9 60-60 60-60-26.9-60-60z" fill="#222"/></g><path d="M465.6 294.5c-.7-2.8-2.9-4.9-5.7-5.7-5-1.3-25.1-1.3-25.1-1.3s-20.1 0-25.1 1.3c-2.8.7-4.9 2.9-5.7 5.7-1.3 5-1.3 15.5-1.3 15.5s0 10.5 1.3 15.5c.7 2.8 2.9 4.9 5.7 5.7 5 1.3 25.1 1.3 25.1 1.3s20.1 0 25.1-1.3c2.8-.7 4.9-2.9 5.7-5.7 1.3-5 1.3-15.5 1.3-15.5s.1-10.5-1.3-15.5z" fill="#CCC" fill-rule="nonzero"/><path fill="#222" fill-rule="nonzero" d="m428.4 319.7 16.7-9.6-16.7-9.6zM1776 321c0-33.1 26.9-60 60-60s60 26.9 60 60-26.9 60-60 60-60-26.9-60-60z"/><g fill="#CCC" fill-rule="nonzero"><path d="M1857.643 325.665c-5.093 0-8.739 3.455-9.182 8.523h-1.653a.956.956 0 0 0 0 1.912h1.652c.376 5.211 4.096 8.537 9.763 8.537a13.11 13.11 0 0 0 5.79-1.127 1.08 1.08 0 0 0 .75-1.202.833.833 0 0 0-.368-.601 1.27 1.27 0 0 0-1.065-.02c-.32.095-.608.198-.88.293a9.998 9.998 0 0 1-3.987.683c-4.363 0-7.25-2.548-7.36-6.495v-.061h13.593a1.118 1.118 0 0 0 1.256-1.154v-.158c-.021-8.468-6.364-9.13-8.309-9.13zm5.925 8.523h-12.466v-.076c.3-3.94 2.895-6.49 6.609-6.49 2.826 0 5.85 1.707 5.85 6.502l.007.064zm-33.69-6.973a1.298 1.298 0 1 0-2.586 0v6.973h2.587v-6.973zm10.71 9.52c0 3.306-2.361 5.887-5.385 5.887-3.58 0-5.312-1.905-5.312-5.818v-.684h-2.587v.847c0 5.102 2.403 7.69 7.147 7.69a6.403 6.403 0 0 0 6.09-3.606l.048-.09v2.147a1.298 1.298 0 1 0 2.587 0v-7.001h-2.587v.628zm1.298-10.852a1.208 1.208 0 0 0-1.297 1.366v6.937h2.587v-6.971a1.209 1.209 0 0 0-1.29-1.332zm-26.694-.218c-4.137 0-5.762 2.67-6.144 3.49l-.334.682v-9.773a1.257 1.257 0 0 0-1.297-1.407 1.256 1.256 0 0 0-1.298 1.407v14.124h2.595v-.042c0-3.114 1.795-6.467 5.742-6.467 3.215 0 4.99 2.05 4.99 5.819v.682h2.595v-.614c-.02-5.088-2.451-7.902-6.854-7.902h.005zm-9.093 17.326a1.257 1.257 0 0 0 1.297 1.4 1.256 1.256 0 0 0 1.318-1.4v-6.884h-2.615v6.884zm13.326 0a1.298 1.298 0 1 0 2.595 0v-6.884h-2.595v6.884zM1826.354 297.22h-3.223v4.198h-3.356v-4.197h-3.223v10.56h3.223v-4.154h3.356v4.154h3.223v-10.56zm11.213 8.44v-8.44h-3.223v10.561h5.829l.484-2.122h-3.09zm-5.606-8.44h-3.224v10.561h3.224v-10.56zm13.068 0h-3.222v10.561h3.222v-10.56zm15.893 2.696c0-.575.574-.84 1.5-.84 1.016 0 2.12.222 2.871.532l-.264-2.299c-.84-.177-1.59-.309-2.958-.309-2.605 0-4.371 1.028-4.371 3.182 0 3.71 5.034 2.96 5.034 4.683 0 .662-.487 1.015-1.679 1.015-1.058 0-2.694-.353-3.665-.84l.355 2.432c.97.354 2.294.53 3.355.53 2.692 0 4.9-.884 4.9-3.536 0-3.533-5.078-2.87-5.078-4.55zm-9.093 5.347c3 0 4.9-1.547 4.9-4.243 0-2.959-2.03-4.02-5.343-4.02-1.28 0-2.826.089-3.929.22v10.561h3.224v-2.518h1.148zm1.721-4.198c0 1.37-.662 2.298-2.341 2.298h-.528v-4.364c.187-.01.363-.01.528-.01 1.59 0 2.341.75 2.341 2.076zm-43.178 4.198c3.001 0 4.9-1.547 4.9-4.243 0-2.959-2.031-4.02-5.342-4.02-1.281 0-2.825.089-3.93.22v10.561h3.224v-2.518h1.148zm1.722-4.198c0 1.37-.663 2.298-2.34 2.298h-.53v-4.364c.187-.01.364-.01.53-.01 1.589 0 2.34.75 2.34 2.076z"/></g></g><g transform="translate(147 207)"><circle stroke="#0F0F0F" stroke-width="4" cx="981" cy="981" r="981"/><g fill-rule="nonzero"><path d="M426.6 132.7c0-33.1 26.9-60 60-60s60 26.9 60 60-26.9 60-60 60c-33.2 0-60-26.9-60-60z" fill="#222"/><path d="M476.6 160.4c25 0 38.6-20.7 38.6-38.7v-1.8c2.6-1.9 5-4.3 6.8-7-2.4 1.1-5 1.8-7.8 2.1 2.8-1.7 5-4.3 6-7.5-2.6 1.6-5.5 2.7-8.6 3.3-2.5-2.6-6-4.3-9.9-4.3-7.5 0-13.6 6.1-13.6 13.6 0 1.1.1 2.1.4 3.1-11.3-.6-21.3-6-28-14.2-1.2 2-1.8 4.3-1.8 6.8 0 4.7 2.4 8.9 6 11.3-2.2-.1-4.3-.7-6.1-1.7v.2c0 6.6 4.7 12.1 10.9 13.3-1.1.3-2.3.5-3.6.5-.9 0-1.7-.1-2.6-.2 1.7 5.4 6.7 9.3 12.7 9.4-4.6 3.6-10.5 5.8-16.9 5.8-1.1 0-2.2-.1-3.2-.2 5.9 3.9 13.1 6.2 20.7 6.2z" fill="#CCC"/><path d="M1386.6 118.7c0-33.1 26.9-60 60-60s60 26.9 60 60-26.9 60-60 60-60-26.9-60-60z" fill="#222"/><path d="M1471.5 136.4h-6.2v-27.7l-18.7 12-18.7-12v27.7h-6.2V98.6h3.7l21.2 13.2 21.2-13.2h3.7v37.8zm0-44.1h-49.9c-3.4 0-6.2 2.8-6.2 6.3v37.8c0 3.5 2.8 6.3 6.2 6.3h49.9c3.4 0 6.2-2.8 6.2-6.3V98.6c.1-3.5-2.7-6.3-6.2-6.3z" fill="#CCC"/><path d="M187.6 333.7c0-33.1 26.9-60 60-60s60 26.9 60 60-26.9 60-60 60c-33.2 0-60-26.9-60-60z" fill="#222"/><path d="m247.1 338.3 2.9 4.2 8.2-16.3 9 17.9H262l-3.7-7.2-3.8 7.2h-9.8c-.2 0-.2 0-.3-.1l-.1-.1-2.7-4c-.1-.1-.1-.2-.1-.2-.1-.1-.1-.2-.2-.3-.1-.1-.2-.1-.6-.1h-.6v4.8h-5.6v-16.9h8.8c1.7 0 3.8.5 5 1.5 1.7 1.4 2.3 3.3 2 5.4-.2 1.4-.8 2.4-1.9 3.3-.4.4-.6.5-1 .7-.1.1-.2.1-.3.2zm-6.9-3.1h2.7c1.1 0 1.8-.6 1.9-1.7 0-1.3-1.2-1.6-2.3-1.6h-2.3v3.3zm-29.1 2.9c.6.1 2.2.4 1.8 1.3-.5 1-4.1.2-5.2-.3-1.4-.7-1.4-.7-2.1-1.2l-3 3.6c3 2 4.8 2.8 8.6 2.8 3.7 0 7.1-1.4 7.4-5.1.3-4.3-3-5.1-6.2-5.8-.6-.1-1.2-.3-1.7-.4h-.1c-.6-.1-1.4-.4-1.3-1.1.1-.6 1.5-.5 2-.4 1.4.1 3.1.8 4.1 1.6l2.8-3.8c-2.5-1.7-4.7-2.4-7.8-2.3-3.5.1-6.7 1.5-7 5.4-.2 4.1 4.3 5.1 7.7 5.7zm12.1-6.1h-5v-4.8h15.6v4.8h-5v12h-5.7v-12h.1zm47.7 13 9.1-17.9h-5.4l-3.6 7.2-3.7-7.2h-5.4l9 17.9zm21.7-1-9.1-17.9-9 17.9h5.4l3.7-7.2 3.6 7.2h5.4z" fill="#CCC"/><path d="M1691.6 375.7c0-33.1 26.9-60 60-60s60 26.9 60 60-26.9 60-60 60-60-26.9-60-60z" fill="#222"/><path d="M1738.6 382.3c8.3 0 14.9-6.7 14.9-14.9s-6.7-14.9-14.9-14.9-14.9 6.7-14.9 14.9 6.7 14.9 14.9 14.9zm26.9-.9c3.7-1.5 5.5-5.8 3.9-9.5-1.5-3.7-5.8-5.5-9.5-4s-5.5 5.8-4 9.5c1.6 3.8 5.9 5.6 9.6 4zm-2.8 19.7c4.7 0 8.5-3.8 8.5-8.5s-3.8-8.5-8.5-8.5-8.5 3.8-8.5 8.5c-.1 4.7 3.8 8.5 8.5 8.5zm10.4-31.3c1.9 0 3.5-1.6 3.5-3.5s-1.6-3.5-3.5-3.5-3.5 1.6-3.5 3.5 1.6 3.5 3.5 3.5z" fill="#CCC"/></g></g><g transform="translate(283 343)"><circle stroke="#0F0F0F" stroke-width="4" cx="845" cy="845" r="845"/><g fill-rule="nonzero"><path d="M1292 175c0-33.1 26.9-60 60-60s60 26.9 60 60-26.9 60-60 60-60-26.8-60-60z" fill="#222"/><path d="m1360.927 172.573 14.063-16.41c2.67-3.664 4.232-5.179 3.032-11.163l-20.873 24.366a22.44 22.44 0 0 0-4.047 6.92 22.434 22.434 0 0 0-1.327 8.627l-9.112-10.36-.011-.011a16.294 16.294 0 0 0-2.671-2.337 28.212 28.212 0 0 0-5.147-2.807 18.82 18.82 0 0 1 1.84-.55 14.522 14.522 0 0 1 3.331-.415c1.26 0 2.497.198 3.683.672 1.178.476 2.323 1.224 3.435 2.431l.612.713 3.787-3.199-.68-.794-.03-.033a14.409 14.409 0 0 0-5.269-3.704 14.802 14.802 0 0 0-5.538-1.034c-.427 0-.846.02-1.265.049-4.14.68-6.696 3.128-10.523 3.525l-.006.003h-12.974c-.286 0-.326.408-.049.462 3.405.68 9.466 1.98 13.725 3.441 3.237 1.499 6.346 3.414 8.8 5.728.48.384.897.767 1.242 1.148l12.137 13.799c1.727 1.42 3.952 2.138 8.687 2.173a17.474 17.474 0 0 1-1.969-3.789 17.498 17.498 0 0 1-.04-12.058c.72-1.973 1.79-3.8 3.157-5.393zM1383 204.84c-4.912-.063-7.053-.898-8.813-2.516l-2.725-3.098c-.18-.218-.362-.435-.558-.664l.03.065-4.828-5.489a13.572 13.572 0 0 1-2.565-13.616 13.55 13.55 0 0 1 2.467-4.2l11.922-13.86c1.218 6.174-.544 7.553-3.427 11.587l-4.725 5.488a8.606 8.606 0 0 0-2.094 5.636 8.66 8.66 0 0 0 2.157 5.707L1383 204.84z" fill="#CCC"/><path d="M278 170c0-33.1 26.9-60 60-60s60 26.9 60 60-26.9 60-60 60-60-26.8-60-60z" fill="#222"/><g fill="#CCC"><path d="M327.5 143.9c2.8-.1 3.7-.2 10.8-.2 7.1 0 8 0 10.8.2 2.8.1 4.7.6 6.4 1.2 1.7.7 3.2 1.6 4.6 3 1.5 1.5 2.3 2.9 3 4.6.6 1.7 1.1 3.6 1.2 6.4.1 2.8.2 3.7.2 10.8 0 7.1 0 8-.2 10.8-.1 2.8-.6 4.7-1.2 6.4-.7 1.7-1.6 3.2-3 4.6-1.5 1.5-2.9 2.3-4.6 3-1.7.6-3.6 1.1-6.4 1.2-2.8.1-3.7.2-10.8.2-7.1 0-8 0-10.8-.2-2.8-.1-4.7-.6-6.4-1.2-1.7-.7-3.2-1.6-4.6-3-1.5-1.5-2.3-2.9-3-4.6-.6-1.7-1.1-3.6-1.2-6.4-.1-2.8-.2-3.7-.2-10.8 0-7.1 0-8 .2-10.8.1-2.8.6-4.7 1.2-6.4.7-1.7 1.6-3.2 3-4.6 1.5-1.5 2.9-2.3 4.6-3 1.7-.6 3.6-1.1 6.4-1.2zm21.3 4.7c-2.8-.1-3.6-.2-10.6-.2s-7.8 0-10.6.2c-2.6.1-4 .6-4.9.9-1.2.5-2.1 1-3 1.9-.9.9-1.5 1.8-1.9 3-.4.9-.8 2.3-.9 4.9-.1 2.8-.2 3.6-.2 10.6s0 7.8.2 10.6c.1 2.6.6 4 .9 4.9.5 1.2 1 2.1 1.9 3 .9.9 1.8 1.5 3 1.9.9.4 2.3.8 4.9.9 2.8.1 3.6.2 10.6.2s7.8 0 10.6-.2c2.6-.1 4-.6 4.9-.9 1.2-.5 2.1-1 3-1.9.9-.9 1.5-1.8 1.9-3 .4-.9.8-2.3.9-4.9.1-2.8.2-3.6.2-10.6s0-7.8-.2-10.6c-.1-2.6-.6-4-.9-4.9-.5-1.2-1-2.1-1.9-3-.9-.9-1.8-1.5-3-1.9-.9-.4-2.3-.8-4.9-.9z"/><path d="M324.8 169.9c0-7.4 6-13.4 13.4-13.4s13.4 6 13.4 13.4-6 13.4-13.4 13.4-13.4-6-13.4-13.4zm4.7 0c0 4.8 3.9 8.7 8.7 8.7 4.8 0 8.7-3.9 8.7-8.7 0-4.8-3.9-8.7-8.7-8.7-4.8-.1-8.7 3.8-8.7 8.7z"/></g><path d="M352.2 159.1c1.7 0 3.1-1.4 3.1-3.1 0-1.7-1.4-3.1-3.1-3.1-1.7 0-3.1 1.4-3.1 3.1 0 1.7 1.4 3.1 3.1 3.1z" fill="#CCC"/></g></g><g transform="translate(448 442)"><circle stroke="#0F0F0F" stroke-width="4" cx="680" cy="746" r="680"/><path d="M547 60.9c0-33.1 26.9-60 60-60s60 26.9 60 60-26.9 60-60 60-60-26.8-60-60z" fill="#222" fill-rule="nonzero"/><path d="m589.1 32.3-18.7 11.9 18.7 11.9 18.8-11.9-18.8-11.9zm37.5 0-18.7 11.9 18.7 11.9 18.7-11.9-18.7-11.9zm-56.3 35.8L589 80l18.8-11.9L589 56.2l-18.7 11.9zm56.3-11.9-18.7 11.9L626.6 80l18.7-11.9-18.7-11.9zM589.1 84l18.8 11.9L626.7 84l-18.8-11.9L589.1 84z" fill="#CCC" fill-rule="nonzero"/><path d="M928 155.9c0-33.1 26.9-60 60-60s60 26.9 60 60-26.9 60-60 60-60-26.8-60-60z" fill="#222" fill-rule="nonzero"/><path d="M1012.105 133.486a58.55 58.55 0 0 0-14.452-4.482.22.22 0 0 0-.233.11 40.784 40.784 0 0 0-1.8 3.696c-5.456-.817-10.885-.817-16.23 0-.485-1.164-1.201-2.586-1.828-3.696a.228.228 0 0 0-.233-.11 58.386 58.386 0 0 0-14.451 4.482.207.207 0 0 0-.096.082c-9.204 13.751-11.726 27.165-10.489 40.412a.244.244 0 0 0 .093.166c6.073 4.46 11.955 7.167 17.729 8.962a.23.23 0 0 0 .249-.082 42.08 42.08 0 0 0 3.627-5.9.225.225 0 0 0-.123-.312 38.772 38.772 0 0 1-5.539-2.64.228.228 0 0 1-.022-.378c.372-.278.744-.569 1.1-.862a.22.22 0 0 1 .23-.03c11.619 5.304 24.198 5.304 35.68 0a.219.219 0 0 1 .233.028c.356.293.728.586 1.103.864a.228.228 0 0 1-.02.378 36.384 36.384 0 0 1-5.54 2.637.227.227 0 0 0-.121.316 47.249 47.249 0 0 0 3.624 5.896.225.225 0 0 0 .249.085c5.801-1.795 11.684-4.502 17.757-8.962a.228.228 0 0 0 .092-.164c1.48-15.315-2.48-28.618-10.497-40.411a.18.18 0 0 0-.092-.085zm-36.38 32.428c-3.497 0-6.38-3.212-6.38-7.156 0-3.945 2.827-7.156 6.38-7.156 3.583 0 6.438 3.24 6.382 7.156 0 3.944-2.827 7.156-6.381 7.156zm23.593 0c-3.498 0-6.38-3.212-6.38-7.156 0-3.945 2.826-7.156 6.38-7.156 3.582 0 6.437 3.24 6.38 7.156 0 3.944-2.798 7.156-6.38 7.156z" fill="#CCC" fill-rule="nonzero"/><path d="M251 180.9c0-33.1 26.9-60 60-60s60 26.9 60 60-26.9 60-60 60-60-26.8-60-60z" fill="#222" fill-rule="nonzero"/><path d="M291.3 163.7c1.6.1 3-1.5 3-2.8 0-1.5-1.4-3.1-3-3.1-1.5 0-2.8 1.2-2.9 2.9 0 1.6 1.7 3.2 2.9 3zm37.1-2.9c-.2 1.6 1.5 3 2.7 3 1.6 0 3-1.5 3.1-2.7.1-1.9-1.5-3.2-3-3.2-1.4 0-2.9 1.2-2.8 2.9zm.2 21.5V169.6c0-.3-.1-.4-.4-.4H326c-.6 0-1 .1-1.2.7 0 .1-.1.2-.1.3-1.3 2.1-3.3 3-5.6 3.5-.6.1-1.2.1-1.9.1-.2 0-.3.1-.3.3v2.9c0 .2.1.3.3.3h6.7c.2 0 .3 0 .3.3v18.9c0 .9.2 1.7-.1 2.6v.2c0 .2.1.4.1.7 0 .7.1.8.8.8 1.1 0 2.1 0 3.2.1.3 0 .3-.1.3-.3V195c.1-4.3.1-8.5.1-12.7zm-20.4 1.5c.1-.1.2-.1.2-.2 1-.6 1.8-1.5 2.4-2.6.4-.8.7-1.7.8-2.7.2-1.6 0-3.2-.7-4.7-.9-2-2.5-3.3-4.6-3.8-.9-.3-1.9-.4-2.9-.6-2-.3-3.9-.1-5.7.7-1.4.6-2.5 1.4-3.4 2.6-.7 1-1.2 2-1.5 3.2-.3.9-.4 1.9-.6 2.9-.1.6-.1.7.6.7h.2c1 .1 2.1.1 3.1.2.2 0 .3-.1.4-.3.1-.4.2-.9.3-1.3.2-.8.5-1.6.9-2.3.2-.4.5-.9.9-1.2.4-.3.8-.6 1.2-.8 1.3-.7 2.7-.8 4.1-.3 1.1.4 2.1.9 2.7 1.9.4.6.7 1.2.7 2v.8c0 1.5-.7 2.6-2 3.4-.8.5-1.6.8-2.5.9-.8.1-1.6.1-2.5.1-.4 0-.5 0-.5.4 0 1 0 1.9-.1 2.9 0 .3.1.4.4.4h3.2c.7 0 1.4.2 2.1.5.7.3 1.3.8 1.8 1.4.9 1 1.3 2.1 1.3 3.4 0 .8-.1 1.5-.4 2.2-.2.6-.5 1-.9 1.5-.6.7-1.3 1.2-2.1 1.6-.7.3-1.4.5-2.2.6-.9.1-1.8 0-2.7-.2-.7-.2-1.4-.4-2-1-.5-.4-.9-1-1.3-1.5-.5-.6-.7-1.4-.9-2.2-.2-.4-.2-.9-.3-1.4 0-.3-.2-.4-.5-.3-.4 0-.8 0-1.1.1-.8 0-1.6 0-2.4.1-.3 0-.4.1-.3.4.1.5.2.9.3 1.4.2 1.1.4 2.3.9 3.4.6 1.2 1.5 2.1 2.5 3 .8.6 1.7 1.1 2.6 1.4.8.2 1.6.5 2.4.6.9.1 1.9.1 2.9.1 1.2 0 2.4-.3 3.6-.7.9-.3 1.8-.7 2.5-1.2 1.1-.7 1.9-1.5 2.5-2.6.2-.4.5-.9.6-1.4.3-.8.5-1.6.6-2.4.1-1.1.1-2.2-.1-3.3-.3-1.3-.8-2.5-1.6-3.5-.6-1.2-1.6-1.9-2.9-2.3zm3.1-32.9h28.9c2.2 0 4.1 1.5 4.9 3.5.1.3.2.7.2 1v39.4c0 .5-.1.8-.4 1.1-1.4 1.3-2.7 2.7-4.1 4.1l-7.4 7.4c-1.5 1.5-3.1 3-4.6 4.5-.3.3-.5.4-.8.4h-46.5c-.3 0-.7-.1-1-.3-1.5-.6-2.6-1.7-3.2-3.3-.1-.3-.2-.7-.2-1.1v-51.9c0-1 .5-1.9 1.1-2.7.7-.9 1.6-1.4 2.6-1.7.7-.2 1.3-.2 2-.2h6.4c7.5-.2 14.8-.2 22.1-.2z" fill="#CCC" fill-rule="nonzero"/></g></g></svg>